# xmcd
#
# Track frame offsets: 
#        150
#        14843
#        25339
#        34892
#        44694
#        52067
#        59159
#        71633
#        87658
#        95604
#        101434
#        109556
#        117872
#        127758
#
# Disc length: 1933 seconds
#
# Revision: 0
# Processed by: cddbd v1.5.1PL0 Copyright (c) Steve Scherf et al.
# Submitted via: ExactAudioCopy v0.95a5
#
DISCID=cc078b0e
DTITLE=Ronny - Weihnachten
DYEAR=2003
DGENRE=National Folk
TTITLE0=Oh du Fröhliche, oh du Selige
TTITLE1=Leise rieselt der Schnee
TTITLE2=Morgen, Kinder wird`s was geben
TTITLE3=Kommet, ihr Hirten
TTITLE4=Alle Jahre wieder
TTITLE5=Kling, Glöckchen, kling
TTITLE6=Ihr Kinderlein Kommet
TTITLE7=Süßer die Glocken nie klingen
TTITLE8=Vom Himmel hoch da komm ich her
TTITLE9=Morgen kommt der Weihnachtsmann
TTITLE10=Es ist ein Ros` entsprungen
TTITLE11=Oh Tannenbaum
TTITLE12=Am Weihnachtsbaum die Lichter brennen
TTITLE13=Stille Nacht, heilige Nacht
EXTD=
EXTT0=
EXTT1=
EXTT2=
EXTT3=
EXTT4=
EXTT5=
EXTT6=
EXTT7=
EXTT8=
EXTT9=
EXTT10=
EXTT11=
EXTT12=
EXTT13=
PLAYORDER=
